<?xml version="1.0" encoding="utf-8"?>
<!-- Generator: Adobe Illustrator 24.0.1, SVG Export Plug-In . SVG Version: 6.00 Build 0)  -->
<svg version="1.1" id="Layer_1" xmlns="http://www.w3.org/2000/svg" xmlns:xlink="http://www.w3.org/1999/xlink" x="0px" y="0px"
	 viewBox="0 0 252 386.1" style="enable-background:new 0 0 252 386.1;" xml:space="preserve">
<g id="qFL6xC.tif">
	<g>
		<path d="M0.2,127C0.2,93.5,0.1,60,0.1,26.4c0-4.1,0.3-8.3,0.6-12.4c0.7-8,6-13.2,14.1-13.9C16.4,0,18.1,0,19.8,0
			c71.2,0,142.3,0,213.5,0c13.1,0,18.5,5.3,18.5,18.3c0,7.3,0,14.6,0,21.9c0,1.6,0.6,3.4-1,4.7c0-1.7-0.6-2.9-2.5-2.9
			c-0.7,0-1.3,0.6-1.1,1.3c0.5,1.8,1.9,2.1,3.5,1.8c0.5,7.8,0.5,7.9-7.5,8.9c-1.6,0.2-3.2,0.5-3.3,2.3c-0.1,2.4,2,1.7,3.3,1.7
			c8.7,0.5,8.7,0.5,8.7,9c0,87.4,0,174.8,0,262.2c0,2.8,1.4,6.5-4.3,5.3c-2.8-0.6-4.7,3.5-3.3,6.2c0.3,0.6,0.8,1.2,1.3,1.5
			c7.2,3.8,6.6,10.3,6.3,16.9c-0.2,4.5,0.1,9-0.1,13.5c-0.1,2.2,0.1,4.9-3.4,5.1c-0.4,0-1.2,0.5-1.2,0.7c0,6.9-5.6,6.4-9.7,6.9
			c-4.2,0.5-8.9,2.1-12.8-1.4c-0.6-0.6-1.7-1-2.2-0.3c-2.5,3.4-6.1,2.1-9.2,2.1c-64.4,0.1-128.8,0.1-193.2,0.1
			c-14.5,0-19.9-5.3-19.9-19.7c0-71,0-141.9,0-212.9c1,0.4,0.4,1.2,0.5,1.8c0.2,1.8-0.3,4.2,2.1,4.4c2.8,0.2,1.9-2.5,2.2-4.1
			c0.4-2.4,0.7-4.9,1-7.4c0.1-1.2,0.3-2.7-0.8-3.2c-5.9-2.6-4.3-7.9-4.6-12.5c-0.1-1-0.3-2-0.5-2.9c1.3,0.3,2.8,1.2,3.9-0.4
			c0.3-0.4,0.4-1.3,0.1-1.7C2.8,125.3,1.5,126.8,0.2,127z M226.9,211.4c0-47.8,0-95.7,0.1-143.5c0-4-0.9-5.6-5.2-5.4
			c-7.9,0.4-15.9-0.1-23.9,0.2c-3.8,0.1-5.2-0.9-5.1-4.9c0.3-8.8-0.2-17.6,0.2-26.4c0.3-5.2-1.4-6.3-6.4-6.3
			c-51.8,0.2-103.5,0.2-155.3,0c-5,0-5.9,1.6-5.9,6.2c0.2,27.2,0.1,54.5,0.1,81.7c0,2.6,0.8,5.6-3.9,3.9c-2.4-0.9-5.5,0.9-4.5,3.5
			c1.6,4,3.4,8.5,6,11.6c2,2.4,2.4,4.2,2.4,6.6c0,72.1,0.1,144.2-0.1,216.3c0,4.4,1.2,5.6,5.5,5.5c25.4-0.2,50.8,0,76.2-0.2
			c3.7,0,6.8,0.5,9.1,3.6c2.4,3.2,4.9,3,7.1-0.2c2-2.9,4.8-3.4,8.2-3.4c29.9,0.1,59.7,0,89.6,0.2c4.5,0,5.8-1.2,5.8-5.8
			C226.8,306.8,226.9,259.1,226.9,211.4z M224.4,57.9c-8.9-9.2-18-18.6-27.3-28.1c0,8.2,0,16.7,0,25.1c0,1.6,0.1,3,2.3,3
			C208.1,57.8,216.8,57.9,224.4,57.9z M10.5,257.3c7.3,0,7.3-0.1,9.6-6.3c0.3-0.9,1-1.7,1.6-2.4c0.9-1.1,1.6-2.2,0.9-3.6
			c-0.7-1.4-2.1-1.7-3.4-1.3c-2,0.5-3.4,0.4-4.5-1.7c-0.6-1.1-1.9-2.2-3.1-0.6c-1,1.3,0,2.4,1.1,2.7c3.4,1,2.1,3.7,2.1,5.8
			c-0.1,2.5-2.3,2.8-4.3,3.3c-2.3,0.5-6.6-1.1-6.3,2.5C4.4,258.9,8.6,256.5,10.5,257.3z M250.8,117.3c0-1.8-0.3-3.6-2.5-3.4
			c-2,0.2-2.2,2.2-2.3,3.9c-0.1,1.9,0.8,3.4,2.7,3.3C251,121,250.7,118.9,250.8,117.3z"/>
		<path d="M113.9,74.1c6.5-14.1,19.4-19.5,32.7-24.4c3.9-1.4,7.6-3.3,11.4-4.8c1.8-0.7,3.8-1.9,5.4,0.3c1.5,2.1,0.2,3.7-1.2,5.3
			c-5.1,6.3-10.4,12.5-15.1,19.1c-3,4.2-5.9,8.7-8.9,12.7c-3.8,5-7.7,10.7-14,13.4c-3.5,1.5-3.2,2.7-0.7,5.1
			c6,5.7,11.7,11.6,17.6,17.3c4,3.9,4.9,7.6,2.3,10.1c-2.5,2.4-7.7,1.6-10.9-1.8c-0.4,2.7-2,3.4-4.5,3.5
			c-7.3,0.3-14.1-5.6-14.3-14.3c-0.2-5.7-2.7-7.4-7.3-8.2c-1.8-0.3-3.5-1-5.2-1.5c-6.8-1.9-10.1-6.1-10.9-13.2
			c-0.2-1.4,1.4-4.9-2.7-3.1c-0.3,0.1-1.1-0.2-1.1-0.5c-0.9-3.8-2.6-7.7-0.6-11.6c1.7-3.3,4.8-3.1,7.8-2.2c0.4,0.1,0.9,0.1,1.7,0.2
			c-0.1-11.6-7.9-19.7-12.8-28.8c1-1,1.8-0.9,2.6-0.4c9.5,6.4,19.4,12.4,21.8,25c0.2,0.9,0.8,1.8,1.2,2.7c0.3,1.6,0.1,3.6,2.3,3.8
			C112.8,77.8,113.2,75.7,113.9,74.1z"/>
		<path d="M43.6,250.2c36.1,0.1,72.1,0.1,108.2,0.1c19.4,0,38.7-0.1,58.1-0.2c0.6,0.1,1.3,0.1,1.9,0.2c-0.1,1.6-0.1,3.2-0.2,4.8
			c-57.2,0-114.5-0.1-171.7-0.1c-0.2-1.7-1-3.5,0.7-5C41.6,250.2,42.6,250.2,43.6,250.2z"/>
		<path d="M161,175.5c0.4-2.2-0.6-5.1,3.3-5.4c1.2-0.1,0.7-2,0.8-3.1c0.1-2.6-0.3-5.4,0.4-7.9c1.5-5.9,5.3-9.1,9.2-8.5
			c9.7,1.6,11.7,1.9,12.1,12c0.2,4.6-0.1,9.3,0.1,13.9c0.1,2.8-0.9,5.5,3,7.5c2.2,1.2-1,4.3-2.5,5.8c-1.7,1.7-8.1-2-8.2-4.5
			c-0.1-1.8-0.1-3.7,0-5.5c0.1-2.2-0.4-3.4-3-3.3c-2.4,0-3.3,0.9-3.1,3.2c0.1,1.3,0.1,2.7,0,4c-0.2,2.7,1.2,6-4,6
			c-5,0-4.2-2.9-4.2-5.8c0-0.8,0-1.7-0.1-2.5C166.5,177.5,163.8,176.5,161,175.5z M173,164.2c0,0.8,0,1.7,0,2.5
			c-0.1,2-0.2,3.9,2.9,4c3.2,0.1,3.4-1.6,3.3-4c-0.1-1.8,0-3.6-0.1-5.4c-0.1-2.3-1.8-2.4-3.5-2.6c-2-0.2-2.6,0.9-2.6,2.6
			C173,162.2,173,163.2,173,164.2z"/>
		<path d="M39.7,314.2c-0.8-4.1,1.7-4.1,4.6-4.1c51.2,0.1,102.5,0,153.7,0c3.3,0,6.6-0.1,9.9,0c1.6,0,4-0.9,4.1,2.1
			c0.1,3.5-2.6,2.4-4.3,2.4c-4,0-7.9-0.3-11.9-0.3c-49.7,0-99.5,0-149.2,0c-1.3,0-2.6,0.2-4,0.3C41.7,314.4,40.7,314.3,39.7,314.2z"
			/>
		<path d="M211.9,265.3c1.1,4.6-1.9,4.2-4.9,4.2c-50.9,0-101.9,0-152.8,0c-3.8,0-7.6,0.3-11.4,0.4c-1.9,0.1-3.3-0.2-3.2-2.6
			c0.1-2.3,1.8-2,3.2-2c1.5,0,3,0,4.5,0c51.1,0,102.2,0,153.3,0c2.1,0,4.3-0.2,6.4-0.4C208.7,265,210.3,265.2,211.9,265.3z"/>
		<path d="M211.9,325.1c0.9,4-1.4,4.2-4.5,4.2c-54.5-0.1-109.1,0-163.6-0.1c-1.8,0-4.4,0.8-4.2-2.5c0.2-3,2.6-2,4.2-2
			c54,0.8,108.1,0.1,162.1,0.3c1,0,2-0.1,3-0.2C209.9,324.9,210.9,325,211.9,325.1z"/>
		<path d="M126.3,344.1c-26.9,0-53.8,0-80.6,0c-1.5,0-3,0-4.5-0.2c-1.3-0.1-1.6-1-1.5-2.1c0.1-0.9,0.4-1.6,1.4-1.7
			c1.2-0.1,2.3-0.1,3.5-0.1c54.3,0,108.5,0,162.8,0c0.7,0,1.3,0,2,0c1.4,0,2.6,0,2.7,2c0,1.9-1.1,2.2-2.6,2.2c-3.7,0-7.3,0-11,0
			C174.4,344.1,150.4,344.1,126.3,344.1z"/>
		<path d="M77.5,150.1c1.6,0,3.2,0.1,4.8,0.1c4.2,2.3,8.7,1.5,13.1,1.2c2,0.7,2.1,2.8,3.1,4.2c-0.1,0.8,0.1,1.5,0.9,2
			c0.2,0.7,0.3,1.4,0.5,2.2c0.4,2.3,0.7,4.6-1.5,6.3c-1.2,0.9-1.8,2.3-0.2,3.2c3.2,1.6,3,4.4,3.1,7.2c0,0.7,0,1.3-0.1,2
			c-0.8,1.6-1,3.3-0.9,5c-1.6,1.4-2.9,3-3.5,5.1c-0.1,0.2-0.1,0.4-0.1,0.6c-6.5,1.4-12.7-1.3-19.2-0.8c-0.8-1-2.7-0.3-3.1-1.8
			c1.6-1.9,1.8-4.6,4-6.1c1.6,0.3,2.1-0.4,1.8-1.9c0-5.6,0-11.3,0-16.9c1-4-1.4-5.1-4.7-5.4c0-0.4,0-0.8,0-1.3
			c1.5-1.2,2.5-2.4,1.4-4.4c0.2-0.1,0.3-0.2,0.3-0.4C77.3,150.1,77.5,150.1,77.5,150.1z M87.7,176.2c-0.5,3.4-0.2,5.8,3.6,6
			c3.3,0.2,2.6-2.4,2.8-4.1c0.4-3.5-2.4-5.6-4.9-5.9C86,171.8,88.5,175.2,87.7,176.2z M88.3,166.9c1.9-0.1,2.9-1.6,3.8-2.8
			c1.1-1.4,0.4-3.1-0.4-4.6c-0.6-1-1.6-1.1-2.6-0.9c-2.1,0.5-1.4,2.3-1.4,3.6C87.7,163.8,87.1,165.5,88.3,166.9z"/>
		<path d="M135.3,150.3c1,0,2,0.1,3,0.1c4.3,0.3,8.5,1.8,13,1c4.8,4.5,5.1,12.5,0.6,16.9c-0.7,0.7-1.5,1.1-0.8,2.4
			c1.2,2.5,2.1,5.1,3.2,7.7c-0.5,4.4,3.2,4.3,5.8,5.3c0.2,1.9-2.9,2.3-1.9,4.5c-0.8,0.2-1.7,0.2-1.9,1.2c-0.7,0.1-1.3,0.2-2,0.3
			c-0.9-0.2-1.8-0.3-2.7-0.5c-0.6-0.7-1.4-0.8-2.3-0.8c-2.3-4.3-2.3-9.6-6-14.5c-1.4,5.8-0.4,10.7-0.9,15.4c-2.4,0-4.7,0-7.1,0
			c0-9.3,0-18.6-0.2-27.8c0-1.5,0.9-3.9-1.6-4c-4.7-0.2-2.7-2.8-2.1-5c0.4-0.6,0.8-1.3,1.1-1.9C133.5,150.6,134.4,150.5,135.3,150.3
			z M142.3,163.2c1,1-1.2,3.9,1.7,3.8c2.2-0.1,3.5-2.1,3.3-4.7c-0.1-1.8,0.1-3.8-2.6-3.8C141.3,158.6,142.9,161.3,142.3,163.2z"/>
		<path d="M44.6,284.8c-2.7-0.4-6,0-5-4.5c23.7,0,47.5,0,71.2,0c26.1,0,52.1-0.1,78.2-0.2c2,2.8,1.6,4.4-2.2,4.4
			c-2.2,0-4.5,0.2-6.7,0.3c-1.3-0.1-2.6-0.4-3.9-0.4c-42.4,0-84.7,0-127.1,0C47.6,284.4,46.1,284.7,44.6,284.8z"/>
		<path d="M125.8,189.3c-0.5,0.2-1,0.4-1.4,0.6c-2.7-0.1-5.3-0.2-8-0.3c-7.7-0.7-8.9-2-8.9-9.9c0-3.8,0.2-7.6,0-11.4
			c-0.4-5.9,0.1-11.5,3.5-16.5c1.8-2.1,4.3-0.9,6.4-1.3c0.9,0.2,1.9,0.4,2.8,0.6c2,0.9,4.1,0.5,6.1,0.5c0.8,0.3,1.6,0.7,2.3,1
			c-1.6,4.1-3.1,8.1-9,6.1c-2.2-0.8-4.5-0.5-4.5,3.2c0.1,3.2,0.5,5,4.3,4.7c2-0.2,4.9-1.3,4.9,2.8c0,4-2.6,3-4.8,3.1
			c-2.1,0.1-4.6-0.6-4.3,3c0.2,2.8-1.2,6.3,3.7,6.4c1.6,0,3.3,0.6,4.9,0.6c3.2-0.1,4.4,0.9,2.9,4
			C126.3,187.4,126.1,188.4,125.8,189.3z"/>
		<path d="M52.6,182.1c1,0.1,2,0.1,3,0.2c0.6,0.1,1.3,0.3,1.9,0.4c-0.7,5.4-3.4,7.9-9.1,6.9c-2.4-0.4-4.9-0.2-7.3-0.2
			c-2.6-3-3.4-6.5-3.3-10.5c0.2-5.9,0-11.8,0.1-17.7c0-2.3-0.5-3.9-3.2-3.6l-0.3-0.1c0,0-0.3,0.1-0.3,0.1c-0.6-2,1.3-3.1,1.6-4.8
			c0.2-0.2,0.2-0.3,0.1-0.5c6.1-2.9,9.8-0.7,9.8,5.8c0,5.5,0,11,0,16.4C45.6,181.3,45.6,181.3,52.6,182.1z"/>
		<path d="M215.5,182.9c-1.8,7.7,0,7-13.3,6.4c-5.4-0.2-5.4-4.3-5.4-8.3c0-5.6,0.1-11.3,0-16.9c-0.1-2.6,0.9-5.8-3.1-6.9
			c-1.2-0.3-1.2-1.7-0.6-2.5c1.4-1.8,2-4.8,5.5-3.7c2.7,0.9,5.7,0.6,5.4,5.2c-0.5,6.9,0.1,13.9-0.2,20.9c-0.1,3.4,0.8,4.8,4.3,4.8
			C210.6,181.8,213.1,182.5,215.5,182.9z"/>
		<path d="M57.6,156.6c0-0.6,0.1-1.1,0.1-1.7c2.2-3.7,5-5.5,9.3-3.4c0.7,0.3,1.6,0.2,2.4,0.3c0.9,1.1,1,2.4,1,3.8
			c0,10.1-0.1,20.2,0.1,30.3c0.1,3.3-1.4,3.8-4.2,3.7c-2.7,0-3.8-0.7-3.8-3.6c0.1-8.8-0.2-17.6-0.3-26.3
			C62.3,156.2,59.1,157.6,57.6,156.6z"/>
		<path d="M64.4,235.4c0.1-4.7,0.1-9.3,0.2-14c0.7-0.3,1.3-0.7,2-1c3.6,0.5,7.5-0.7,10.5,2.2c0.5,1.6,0.9,3.2,1.4,4.8
			c-0.1,0.5-0.2,1.1-0.2,1.6c-4.1,2.8-4.2,5.6-0.2,8.6c0.4,0.9,0.9,1.8,1.3,2.7c-5.3,2-6.5-3.4-9.8-6c-0.1,1.7-0.2,2.8-0.3,4
			c-0.1,1.4-0.7,2.1-2.1,2.1c-1.5,0-2.6-0.3-2.6-2.1C64.5,237.3,64.5,236.3,64.4,235.4z M73.6,226.7c0-1.1-0.5-2.1-2.2-2.2
			c-1.5-0.1-2,0.8-2,2.1c0,1.3-0.2,2.8,1.7,2.9C72.7,229.5,73.6,228.7,73.6,226.7z"/>
		<path d="M212.3,223.4c-0.8,2.5-2.9,1.8-4.6,1.8c-10.2,0-20.4-0.2-30.6,0.1c-3.9,0.1-4.5-1.6-4-4.7c11.7,0,23.4,0,35.1-0.1
			C210.4,220.4,212.3,220.6,212.3,223.4z"/>
		<path d="M212.3,237.4c-0.2,0.9-0.4,1.9-0.6,2.8c-12.8,0-25.6,0-38.3,0c-1-3.5-0.1-5,4-4.9c11.5,0.2,23,0.1,34.5,0.1
			C212,236.1,212.1,236.7,212.3,237.4z"/>
		<path d="M55.3,230.5c0.5,1.6,1,3.2,1.5,4.8c2,5.2,2,5.2-3.1,4.7c-0.1-0.8-0.1-1.7-0.9-2.3c-3.3-0.8-6.7-2.3-9,2
			c-0.4,0.7-2.1,0.6-3.2,0.9c-0.8-0.5-0.8-1.4-0.8-2.2c1.9-3.4,3.3-7.1,4.3-10.9c0.5-1.4,1.1-2.8,1.6-4.1c1.1-2.5,2.9-3.4,5.5-2.8
			c0.3,0.6,0.6,1.3,0.9,1.9C52.9,225.3,53.6,228.1,55.3,230.5z M51.6,233c-0.9-1.9-0.7-3.8-2.5-5.3c-0.9,1.6-2.3,3.2-1.8,4.9
			C47.7,234,49.5,233.2,51.6,233z"/>
		<path d="M163.1,220.4c1.7,2.4,1.7,4-1.8,4c-1.4,0-3.2-0.3-3.2,2c0,2.3,1.7,2,3.2,2c1.3,0.1,2.8-0.1,2.8,1.9c0,1.9-1.4,1.9-2.7,2
			c-1.4,0.1-3.2-0.3-3.2,2c0,2.6,1.9,2.3,3.5,2.3c1.5,0.1,2.7,0.3,2.5,2.2c-0.2,1.7-1.5,1.5-2.6,1.5c-1.8,0-3.6,0-5.5,0
			c-1.2,0-2.5-0.2-2.5-1.7c0.2-6.1-1.2-12.2,0.9-18.2C157.3,220.5,160.2,220.4,163.1,220.4z"/>
		<path d="M128.8,220.7c0.9,2.9,1.6,5.1-3.2,4c-3.8-0.9-6.7,2.2-6.5,6.2c0.1,4,2.6,6.6,6.4,5.6c4.7-1.4,4,1.2,3.6,3.9
			c-8.1,1.9-11.4,0.1-14.8-7.9c0-1,0-2,0-3c0.7-3,2.4-5.4,4.2-7.8c0,0,0.1,0,0.1,0C121.9,220.3,125.3,220.2,128.8,220.7z"/>
		<path d="M87.6,228.4c0.1-1.8,0.7-3.8-2.2-4c-1.5-0.1-2-1.2-1.7-2.4c0.2-1.2,1.3-1.4,2.3-1.4c2.8,0,5.6,0,8.5,0
			c0.9,0,1.6,0.4,1.9,1.3c0.2,0.8,0.2,2.1-0.6,2.2c-5,0.5-2.9,4.3-3.2,6.8c-0.2,2.5,0,5,0.1,7.5c-0.1,0.7-0.1,1.3-0.2,2
			c-1.6-0.1-3.5,0.7-4.8-1C87.6,235.7,87.6,232,87.6,228.4z"/>
		<path d="M136.5,220.9c3.3-1,5.1-0.2,4.7,3.7c-0.2,2.3,0,4.6-0.1,6.9c-0.1,3-0.2,5.7,4.1,5.3c1.1-0.1,1.8,0.7,1.8,1.9
			c0,1.6-1.1,1.8-2.3,1.8c-2.8-0.1-5.6-0.2-8.3-0.3C136.4,233.7,136.5,227.3,136.5,220.9z"/>
		<path d="M102.5,239.3c0.1-6.2,0.1-12.3,0.2-18.5c0,0-0.1-0.2-0.1-0.2c1.2-0.1,2.5-0.2,3.7-0.3c2.1,6.5,0.4,13.2,0.9,19.8
			c-1.3,0.1-2.6,0.2-3.9,0.3C103.1,240.1,102.8,239.7,102.5,239.3z"/>
		<path d="M196.6,207.3c-1.5-1-3.3-0.1-5,0c-1,0.1-2,0-2.4-1.2c-0.3-0.8-0.2-1.7,0.5-2.2c0.9-0.7,2-0.8,2.7,0
			c1.3,1.6,2.3,1.3,3.6,0.1c1-0.9,2.5-1,3.6-0.2c0.7,0.5,0.9,1.3,0.6,2.2C199.5,207.8,198.1,207.4,196.6,207.3z"/>
		<path d="M44.2,227.6c-1.1,3.8-2.4,7.4-4.3,10.9"/>
		<path d="M155.3,203.4c1.3,0.1,2.4,0.4,2.5,1.9c0.1,1.4-0.7,2.1-2.1,2.1c-1.3,0-2.3-0.3-2.4-1.8C153.2,204.2,154,203.5,155.3,203.4
			z"/>
		<path d="M169.4,207.4c-1.4-0.1-2.2-0.8-2-2.2c0.2-1.4,1.1-1.9,2.5-1.8c1.3,0.1,2.1,0.8,2,2.2C171.7,207.1,170.7,207.5,169.4,207.4
			z"/>
		<path d="M86.3,205.6c-0.2,1.5-1.2,1.8-2.4,1.8c-1.4,0-2.2-0.7-2.1-2.1c0.1-1.4,1.1-1.9,2.4-1.8C85.5,203.6,86.2,204.2,86.3,205.6z
			"/>
		<path d="M212.3,207.4c-1.3-0.1-2.2-0.7-2-2.1c0.2-1.3,1.2-1.9,2.5-1.8c1.3,0.1,2.1,0.8,2,2.2C214.5,207.1,213.5,207.5,212.3,207.4
			z"/>
		<path d="M136.2,205.6c-0.1,1.5-1.1,1.8-2.4,1.8c-1.3,0-2.2-0.6-2-2c0.2-1.3,1.1-1.9,2.4-1.9C135.6,203.5,136.2,204.3,136.2,205.6z
			"/>
		<path d="M143.2,205.3c0,1.4-0.7,2.1-2.1,2.1c-1.1,0-2-0.5-2.2-1.6c-0.2-1.3,0.5-2.2,1.9-2.4C142.1,203.3,143,203.8,143.2,205.3z"
			/>
		<path d="M164.8,205.2c-0.3,1.7-1.2,2.3-2.5,2.2c-1.4-0.1-2.1-1-1.9-2.3c0.2-1.1,1.1-1.6,2.1-1.6
			C163.9,203.5,164.5,204.4,164.8,205.2z"/>
		<path d="M179,205.5c-0.2,1.5-1.1,1.9-2.4,1.8c-1.1-0.1-1.9-0.7-2-1.8c-0.1-1.4,1-2,2.2-2.1C178.1,203.5,179,204.1,179,205.5z"/>
		<path d="M41.3,203.4c1.3,0.1,2.2,0.7,2.2,2.1c-0.1,1.5-1.1,1.9-2.4,1.8c-1.1-0.1-1.9-0.7-1.9-1.8
			C39.1,204.2,39.9,203.5,41.3,203.4z"/>
		<path d="M48.3,207.4c-1.2-0.2-2.4-0.6-2.2-2c0.2-1.3,1.2-1.9,2.5-1.8c1.1,0.1,1.9,0.6,1.9,1.8C50.6,206.8,49.7,207.4,48.3,207.4z"
			/>
		<path d="M124.6,205.4c0.4-1.3,1.3-1.9,2.6-1.9c1.4,0,2.1,0.9,2,2.3c-0.1,1.2-1.1,1.6-2.2,1.6C125.6,207.3,124.7,206.8,124.6,205.4
			z"/>
		<path d="M122,205.3c-0.3,1.7-1.2,2.2-2.5,2.1c-1.1-0.1-1.9-0.6-1.9-1.8c-0.1-1.5,0.9-2,2.2-2.1C121,203.4,121.6,204.4,122,205.3z"
			/>
		<path d="M105.5,203.4c1.3,0.1,2.3,0.7,2.2,2.1c-0.1,1.4-1.1,1.9-2.4,1.8c-1.2,0-1.8-0.6-1.9-1.8
			C103.4,204.1,104.1,203.5,105.5,203.4z"/>
		<path d="M98.2,207.4c-1.3-0.1-2.3-0.7-2.1-2.1c0.1-1.4,1.2-1.8,2.5-1.8c1.1,0.1,1.8,0.7,1.8,1.9
			C100.4,206.8,99.5,207.4,98.2,207.4z"/>
		<path d="M93.3,205.6c-0.1,1.5-1,1.9-2.4,1.8c-1.1-0.1-1.9-0.7-1.9-1.8c-0.1-1.4,0.8-2.1,2.1-2.1C92.5,203.4,93.3,204.1,93.3,205.6
			z"/>
		<path d="M69.5,203.5c1.3-0.1,2.3,0.5,2.4,1.9c0.1,1.4-0.8,2.1-2.2,2.1c-1.1,0-2-0.3-2.1-1.6C67.5,204.5,68.1,203.6,69.5,203.5z"/>
		<path d="M62.5,203.5c1.1-0.1,1.9,0.4,2.1,1.6c0.2,1.3-0.3,2.2-1.8,2.3c-1.1,0-2-0.4-2.1-1.5C60.4,204.5,61.1,203.7,62.5,203.5z"/>
		<path d="M57.6,205.2c0,1.6-0.8,2.1-1.9,2.1c-1.4,0-2.1-0.7-2.1-2.1c0-1.2,0.7-1.8,1.9-1.8C56.9,203.5,57.5,204.3,57.6,205.2z"/>
		<path d="M79.2,205.5c-0.3,1.4-1.1,2-2.5,1.8c-1.3-0.1-2.1-1-1.9-2.3c0.2-1,1-1.7,2.2-1.6C78.3,203.5,79,204.2,79.2,205.5z"/>
		<path d="M186,205.2c-0.1,1.6-0.7,2.1-1.9,2.2c-1.4,0.1-2.1-0.6-2.1-2c0-1.1,0.7-1.8,1.8-1.8C185.3,203.4,185.8,204.3,186,205.2z"
			/>
		<path d="M207.7,205.2c-0.2,1.5-0.9,2.2-2.3,2.2c-1.1,0-2-0.5-2.2-1.6c-0.2-1.3,0.6-2.1,2-2.3C206.5,203.3,207.2,204.1,207.7,205.2
			z"/>
		<path d="M148.4,207.4c-1.3,0-2.2-0.6-2.2-2c0-1.1,0.7-1.8,1.8-1.9c1.4-0.1,2.1,0.6,2.2,2C150.2,206.7,149.6,207.3,148.4,207.4z"/>
		<path d="M43.6,250.2c-1,0-2,0-3-0.1c0.1-0.8,0.3-1.6,1.3-1.7C43.2,248.4,43.5,249.2,43.6,250.2z"/>
		<path d="M99.4,157.6c-0.7-0.5-1-1.2-0.9-2"/>
		<path d="M212.3,237.4c-0.1-0.7-0.3-1.3-0.4-2c0.5,0.3,1.4,0.4,1.6,0.8C213.7,237,212.9,237.2,212.3,237.4z"/>
	</g>
</g>
</svg>
