<?xml version="1.0" encoding="utf-8"?>
<!-- Generator: Adobe Illustrator 24.0.1, SVG Export Plug-In . SVG Version: 6.00 Build 0)  -->
<svg version="1.1" id="Layer_1" xmlns="http://www.w3.org/2000/svg" xmlns:xlink="http://www.w3.org/1999/xlink" x="0px" y="0px"
	 viewBox="0 0 252.2 385.8" style="enable-background:new 0 0 252.2 385.8;" xml:space="preserve">
<g id="_x34_fHKD2.tif">
	<g>
		<path d="M241.6,138.6c0-1.1,0-2.3,0-3.4c0-3.7,1.1-4.9,4.6-5.2c5.7-0.5,5.7-0.5,5.7,5.1c0,29.1-0.1,58.2,0.1,87.3
			c0,4.6-2,8.8-1.4,13.3c3,22.4,0.8,44.8,1.2,67.2c0.4,22.5,0.2,45.1,0,67.6c-0.1,5.3-2.2,10.4-7.3,12.9c-3.1,1.5-6.9,2.3-10.4,2.3
			c-72.4,0.1-144.8,0.1-217.3,0.1c-7.5,0-13.9-4.3-16.4-10.9c-0.4-0.9-0.3-2-0.3-3c0-10.3,0-20.6,0-30.9c0-1.2-0.8-3.1,1.4-3.2
			c1.7-0.1,4-1.3,4.6,1.8c0.2,1.1,1.1,1.7,2.3,1.5c0.8-0.1,1.3-0.3,1.4-1.2c0.2-1.3-0.4-2.1-1.7-2.5c-3.6-1.1-1.7-4.2-1.9-6.3
			c-0.1-1.5,1.7-2.3,3.5-2.2c1.7,0,3.4,0,5.1-0.2c1.2-0.2,2.5-0.5,2.5-2.2c-0.1-1.9-1.5-1.6-2.7-1.6c-2.3,0-4.5,0-6.8,0
			c-3,0-6.6-0.9-6.5,4.7c-1.6-2.2-1.2-3.9-1.2-5.5c0-87,0-174,0-261c0-5.5,0-11.1,0-16.6c0-0.7-0.4-1.7,0.7-2c0.8-0.3,1.1,0.6,1.6,1
			c1.4,1.1,2.3,2.7,4.2,3.2c2,0.5,4.5,0.8,5.5-1.1c1.1-2.1,1-4.6-0.7-6.7c-1-1.1-2.2-1.9-3.2-3C6.6,35.9,5.3,36,3.9,38
			c-0.5,0.7-1.2,1.3-1.8,1.9c-0.4,0.4-0.7,0.9-1.4,0.6c-0.7-0.3-0.6-0.9-0.6-1.5c0-8.9-0.2-17.9,0.2-26.8c0.1-3,2.3-5.6,4.9-7.5
			c1.4-1,1.1,0.3,1.5,0.6c1,0.7,2.2,1,3.1,0.1c1-1,0.4-1.7-0.7-2.3C7.6,2.4,9,1.6,9.4,1.6C11.7,1.4,13.5,0,15.9,0
			c73.2,0.1,146.4,0,219.7,0.2c9,0,16.5,5.8,16.4,16.4c-0.1,35.1-0.1,70.2,0,105.3c0,3-0.7,4.3-3.9,4c-2.6-0.2-5.2,0.3-7.8,0.3
			c-2.3,0-3.3,1.3-3.3,3.3c0,2.1-0.2,3.9-2,5.5c-0.8,0.7-1.4,2.2-0.5,3.4c0.8,1.1,2,0.9,3.1,0.7C239,138.9,240.3,138.7,241.6,138.6
			c-0.1,1.1-0.2,2.1,1,2.9c0.7,0.5,1.2,1.5,2.3,0.9c0.7-0.4,0.7-1.1,0.7-1.8c0-1-0.5-1.7-1.6-1.9
			C243.2,138.6,242.4,138.6,241.6,138.6z M25.3,192.4c0,54.3,0,108.5,0,162.8c0,4.4,0,4.4,4.4,4.4c64.4,0,128.7,0,193.1,0.1
			c3.2,0,3.9-0.9,3.9-4c-0.1-63.3-0.1-126.6-0.1-189.9c0-2.3-0.3-4.6,2-6.3c0.6-0.4,1.5-2.1-0.1-2.5c-2.4-0.5-1.9-2.1-1.9-3.6
			c0-29,0-58,0.1-87c0-2.5-0.6-3.3-3.2-3.3c-9.3,0.2-18.6,0-27.9,0.1c-2.7,0-3.7-0.6-3.7-3.5c0.2-10.2,0-20.4,0.2-30.6
			c0.1-2.9-0.9-3.5-3.6-3.5c-52.8,0.1-105.6,0-158.4,0.1c-5.2,0-4.8-1-4.8,5C25.3,84.6,25.3,138.5,25.3,192.4z M225.4,57.5
			c-0.5-0.7-0.8-1.3-1.3-1.8c-8.4-8.3-16.8-16.6-25.2-24.9c-0.5-0.5-0.7-1.6-1.7-1.1c-0.7,0.3-0.4,1.2-0.4,1.9
			c0,7.9,0.1,15.8,0,23.7c0,2.2,0.9,2.6,2.9,2.6c4-0.1,7.9,0,11.9,0c3.3,0,6.7-0.5,9.8,0.3C223.1,58.7,224,58.2,225.4,57.5z
			 M230.8,257.3c0,1.7,0,3,0,4.2c-0.1,3,1.8,4.3,4.4,5c1.5,0.4,2.9,0.2,3.8-1.2c0.9-1.5,1.1-3.1,0-4.4c-2.3-2.7-3.9-5.6-4.3-9.2
			c-0.2-1.9-1.1-2.1-2.7-0.8C229.7,252.9,231.3,255.5,230.8,257.3z M10.3,265.6c0.7-2.1-0.2-3.7-2.1-3.8c-1.6-0.1-2.6,1.4-2.3,3.3
			c0.2,1.7-0.3,3.9,2.5,3.9C10.8,269,10.2,267,10.3,265.6z M21.1,233c-0.4-0.5-0.3-1.8-1.4-1.7c-1.2,0-2.3,1-2.6,2.1
			c-0.4,1.3,1.1,1.1,1.8,1.3C20,235,20.9,234.6,21.1,233z M240.3,155.5c1.3-0.1,1.3-1.1,1.3-1.9c0-0.8,0-1.9-1.3-1.9
			c-1.2,0-1.3,1.1-1.3,1.9C239,154.4,239.1,155.4,240.3,155.5z M10.4,12.6c-0.2-0.6,0.1-1.7-1.2-1.8c-1.3-0.1-1.4,0.8-1.5,1.7
			c0,0.9,0.1,1.9,1.2,2C10.1,14.7,10.3,13.8,10.4,12.6z M32,19.9c-0.1-0.9-0.4-1.5-1.4-1.5c-0.9,0-1.5,0.6-1.5,1.5
			c-0.1,1,0.5,1.7,1.6,1.7C31.6,21.4,31.9,20.7,32,19.9z"/>
		<path d="M151.1,71.3c0.4,5.3-1.5,10-1.7,14.9c-0.1,3,0.2,5.4,2.5,7.2c1.3,1,1.8,2.3,1.6,3.5c-0.7,3.4-1.6,6.9-3.2,10
			c-1.3,2.5-3.4,2.5-5.8,2.5c-1.9,0-3.9-0.7-5.5,0.8c-1.3,1.2-2.5,2.4-2.2,4.6c1.2,7.1-4.5,11.5-11.1,11.6c-4.6,0-9.2,0.7-13.9-1.6
			c-4.5-2.2-5.3-5.6-5.3-9.8c0-3.6-1.8-5.9-5.5-5.5c-6.8,0.7-8.3-1.1-9.8-8.4c-0.2-0.8-0.1-1.7-0.5-2.3c-1.7-2.2-0.9-3.9,1-5.1
			c1.9-1.2,2.3-2.8,2.3-4.9c0-6.8-1.3-13.5-0.7-20.3c0.8-10,5.6-17.3,14.5-22.2c8.3-4.6,16.7-4.6,25.3-1.4
			c8.2,3.1,13.9,8.7,16.6,17.3C150.6,65.2,151.5,68.2,151.1,71.3z M109.2,80.8c-6.9-0.1-12,5.3-10.8,11.3c0.5,2.6,1.3,5.4,3.3,7.8
			c2.4,2.8,6,3.4,8.9,0.8c1.5-1.4,2.9-3.1,4.7-4.2c2.1-1.2,2.5-3,2.6-5.1c0.1-1.7-0.4-3.4-0.5-5c-0.2-3.7-2.6-4.9-5.6-5.5
			C110.6,80.8,109.4,80.8,109.2,80.8z M135.3,80.8c-3.8-0.1-7.7,0.6-9,4.3c-1.8,5-2.3,8.5,2.7,11.8c1.3,0.9,2.3,2.4,3.4,3.6
			c2,2.2,5.4,2.7,7.9,0.9c4.3-3.2,5.4-7.5,4.4-12.6C143.5,83.1,140.7,80.7,135.3,80.8z M128.1,108.5c-0.1-0.8-0.1-1.7-0.5-2.3
			c-1.7-2.4-3.4-4.7-4.2-7.8c-0.5-1.6-2.9-1.8-3.5,0.1c-1,3.2-2.9,5.9-4.4,8.9c-1,1.9,0.5,3.5,1.6,4.8c1,1.1,2.2,0.6,3.2-0.6
			c0.7-0.8,1.9-1,2.6-0.1c0.9,1,1.8,1.6,2.9,0.8C127,111.5,128.4,110.5,128.1,108.5z"/>
		<path d="M39.1,268c0-0.1-0.1-0.3-0.1-0.4c0.1-4.3,2.7-4.7,6.4-4.7c54.1,0.1,108.1,0.1,162.2,0.1c1,0,2.1-0.1,3,0.1
			c1.6,0.4,2.2,1.7,2.2,3.3c0.1,1.8-1.2,1.9-2.5,1.9c-1.8,0-3.6,0-5.4,0c-53.6,0-107.2,0-160.8,0C42.4,268.4,40.7,268.8,39.1,268z"
			/>
		<path d="M126,253.6c-28,0-56,0-84,0c-1.8,0-2.6-0.4-2.4-2.2c0.2-1.4-0.6-3.4,2.1-3.3c2.9,0.1,5.9,0,8.8,0c51.7,0,103.4,0,155,0
			c1.4,0,2.7,0,4.1,0c2.2,0.1,3.2,1.3,3.2,3.5c0,2.4-1.9,1.9-3.2,1.9C181.8,253.5,153.9,253.5,126,253.6
			C126,253.5,126,253.6,126,253.6z"/>
		<path d="M126.4,337.7c27.4,0,54.8,0,82.2,0c3.2,0,4.6,1.8,3.9,4.7c-0.1,0.5-0.6,0.7-1,0.7c-0.8,0.1-1.6,0.1-2.4,0.1
			c-55.3,0-110.6,0-165.8,0c-1.4,0-3.6,1.1-3.7-1.9c-0.1-2.4,0.2-3.5,3.2-3.5C70.7,337.8,98.5,337.7,126.4,337.7z"/>
		<path d="M126.4,322.8c27.6,0,55.3,0,82.9,0.1c1,0,3.3-1.1,2.9,1c-0.3,1.6,0.7,4.4-3.3,4.4c-55.4-0.2-110.8-0.1-166.1-0.1
			c-1.8,0-3.3,0.1-3.2-2.5c0-2.5,1.1-2.9,3.3-2.9C70.7,322.8,98.5,322.8,126.4,322.8C126.4,322.8,126.4,322.8,126.4,322.8z"/>
		<path d="M125.7,313.3c-27.6,0-55.3-0.1-82.9,0.1c-3,0-3.3-1.2-3.2-3.6c0.1-1.5,0.6-2,2.1-1.9c2.2,0.1,4.3,0,6.5,0
			c53.4,0,106.7,0,160.1,0c4,0,4.2,0.4,3.7,3.7c-0.3,2.2-1.7,1.7-2.9,1.7c-12.2,0-24.5,0-36.7,0
			C156.8,313.3,141.2,313.3,125.7,313.3z"/>
		<path d="M88,167.8c0,3.4,0.1,6.8,0,10.2c-0.1,1.8,0.2,3.1,2.3,3.4c2.4,0.3,1.9,1.7,1.2,3.2c-1.9,3.6-7.6,4.2-10.4,1.2
			c-0.4-0.4-0.4-1.3-0.4-1.9c-0.1-1.8-0.2-3.6,0-5.4c0.5-3.3-1-4.1-4-3.8c-1.6,0.2-2.2,0.7-2.2,2.3c0.1,2.7-0.1,5.4,0,8.1
			c0.1,1.9-0.5,2.8-2.4,2.5c-1-0.1-2-0.1-3.1,0c-2.1,0.2-2.8-0.8-2.6-2.8c0.1-2.1,0-4.3,0.1-6.4c0-1.9,0.3-3.9-2.7-3.8
			c-1.9,0-1.4-1.7-1.3-2.9c0-1.2-0.5-3.2,1.5-3.1c2.7,0.1,2.7-1.6,2.5-3.3c-0.9-5.8,1.2-10.5,5-14.8c1-1.2,1.7-1.8,3.2-1.7
			c3.6,0.2,7.2,0.8,10.4,2.3c2.3,1.1,3,3.5,3.1,5.9C88.1,160.6,88,164.2,88,167.8z M74.4,162c0,1.1,0.1,2.3,0,3.4
			c-0.3,2.3,0.6,3.1,3,3.1c2.6,0,3.5-0.7,3.2-3.2c-0.2-1.7-0.1-3.4,0-5.1c0.2-3.1-2-3.7-4.3-3.9c-3.1-0.2-1.5,2.3-1.8,3.7
			C74.3,160.6,74.4,161.4,74.4,162z"/>
		<path d="M116.4,174.6c0.3,5.1-2,9.2-5.7,12.7c-0.1,0.1-0.1,0.2-0.2,0.2c-1.5,1.1-13.3-0.1-14.3-1.5c-0.9-1.3-0.2-3,0.5-3.8
			c0.9-1.1,0.5-3.6,2.9-3.1c1.8,0.4,3.8,0,5.6,1c2.1,1.2,3.6,0.8,3.6-2.2c0-2.7,0-5-3.4-5.9c-2.3-0.6-4.2-2.5-6.4-3.4
			c-1.2-0.5-1.5-1.2-1.4-2.3c0-2.1,0.2-4.3,0-6.4c-0.6-4.4,1.8-7.4,4.7-10.1c0.9-0.9,2-1,3.1-1c3.2,0.2,6.3,0.5,9.5,0.7
			c1.4,0.1,2.3,0.5,1.1,2.1c-0.6,0.9-0.8,2.1-1.3,3c-0.8,1.6-1.3,3.8-4,1.9c-0.7-0.5-2-0.3-3-0.3c-1.1,0-2.9-0.8-3,1.1
			c-0.1,1.7-1.1,3.6,1,5.2c1.8,1.4,4,2.2,5.9,2.8C116.1,167,116.4,170.4,116.4,174.6z"/>
		<path d="M172.7,179.3c0.5,0,1.5,0,2.5,0.3c1.5,0.3,3,2.4,4.3,0.2c1.1-1.8-0.2-5.8-1.9-7c-2.5-1.7-5-3.2-7.8-4.3
			c-0.8-0.3-1.5-0.7-1.5-1.6c0.1-5.8-1.4-12,4.4-16.4c1.6-1.2,2.9-2,4.8-1.7c1.3,0.2,2.7,0.4,4,0.5c1.9,0.1,4.6-0.2,5.1,1.6
			c0.4,1.6-1,3.8-1.8,5.6c-0.6,1.4-1.8,0.8-2.9,0.4c-1.9-0.8-4.3-1.9-5.7,0.3c-1.6,2.7,0,5.7,3.3,6.8c1.9,0.7,3.4,2.1,5.4,2.6
			c0.8,0.2,1.9,1.4,1.9,2.1c0.2,5,1.5,10.1-1.7,14.7c-3.4,4.9-8.5,6-15.2,3.1c-1.1-0.5-3.5,0.6-3.2-2
			C167.3,181.3,169.5,179.2,172.7,179.3z"/>
		<path d="M143.6,180.6c-0.3,0.9-0.5,1.5-0.7,2.1c-1.8,5.3-1.9,5.3-7.4,4.8c-3.1-0.3-6.3,0-9.2-1.4c-1-0.5-1.8-0.9-2.1-1.9
			c-2.4-7.4-2.9-15-2.1-22.6c0.6-5.6,4.6-9.7,9.3-12.3c3.2-1.8,7.3,0.2,10.9,0.2c0.2,0,0.4,0.2,0.5,0.4c1.1,2.9-1.6,4.4-2.4,6.6
			c-0.5,1.5-1.9,0.9-2.9,0.6c-5.8-2.1-7.7-1-8,5c-0.3,5.4,0,10.9,2.2,15.8c1.1,2.4,4.4,1.9,6.7,2.5
			C140.1,180.9,141.8,180.6,143.6,180.6z"/>
		<path d="M60.8,151.1c-0.5,2.1-2.5,3.4-3.2,5.5c-0.5,1.4-1.7,0.9-2.6,0.9c-0.6-0.1-1.3-0.4-1.9-0.6c-1.8-0.8-4.4-1.4-5.4-0.1
			c-1.4,1.8-0.5,4.5-0.4,6.9c0.1,0.8,1,0.7,1.7,0.7c1.6,0,3.2,0.2,4.7,0c3.2-0.5,3.8,1.1,3.6,3.9c-0.1,1.9-0.7,2.5-2.6,2.5
			c-2.4,0-5.6-1.2-7.2,0.6c-1.6,1.8-0.4,5-0.5,7.6c-0.1,1.6-0.2,3.2,0,4.7c0.5,3.4-0.9,4.2-4.1,4.1c-2.6-0.1-3.5-0.7-3.5-3.4
			c0.2-8.5,0.2-17,0-25.4c-0.1-4.2,3-6.5,4.8-9.6c0.6-0.9,1.9-0.5,2.9-0.4C51.9,149.2,56.5,149.4,60.8,151.1z"/>
		<path d="M200.3,171.6c0-4.2-0.1-8.4,0-12.6c0.1-2.2-0.6-3.2-2.9-2.9c-0.6,0.1-1.2,0.1-1.7,0c-1.3-0.4-4,1.3-3.8-1.7
			c0.2-2.3,0.7-5.1,4.2-5.1c6.3,0,12.7,0,19,0c2,0,2,0.5,1.5,2.4c-1.1,3.9-3.2,5.2-7,4.6c-2-0.3-2.1,1-2.1,2.5
			c0,8.5-0.2,17,0.1,25.5c0.1,3.7-1.8,3.1-4.1,3.3c-2.8,0.2-3.5-0.9-3.4-3.5C200.4,180,200.3,175.8,200.3,171.6
			C200.3,171.6,200.3,171.6,200.3,171.6z"/>
		<path d="M160.1,169.2c0,4.9-0.2,9.7,0.1,14.6c0.2,3.3-1,4.2-4,3.7c-0.3-0.1-0.7-0.1-1,0c-2.8,0.5-3.4-0.9-3.3-3.5
			c0.1-8.5,0.1-16.9,0-25.4c0-1.2,0.5-2.9-1.6-3c-1.3-0.1-3.2-0.2-2.7-2c0.5-1.9,1.1-4.4,3.6-4.8c2.3-0.3,4.7,0.1,6.9,1.1
			c1.5,0.7,2.2,1.8,2.2,3.6C160,158.8,160.1,164,160.1,169.2C160.1,169.2,160.1,169.2,160.1,169.2z"/>
		<path d="M186.3,277.9c-37,0.1-74.1,0-111.1,0c-10.9,0-21.7,0-32.6,0c-1.9,0-3,0.2-2.9,2.5c0,2,0.3,3.4,2.8,2.8
			c0.9,0,1.8,0.1,2.7,0.1c46.4,0,92.9,0,139.3,0c1.2,0,2.5-0.1,3.7,0c1.6,0.1,2-0.7,1.7-2.1C190.7,278.1,188.8,277.9,186.3,277.9z"
			/>
		<path d="M69.6,232.8c0,1.2,0,2.2,0,3.2c0.1,1.8,0.2,3.2-2.5,3.2c-2.6,0-2.9-1.1-2.9-3.3c0.1-4.6,0.1-9.3,0-13.9
			c0-1.9,0.6-2.7,2.5-2.6c1.6,0.1,3.2,0.2,4.7,0c3.7-0.5,5.4,1.7,6.5,4.5c1.1,2.7-0.8,4.7-2.4,6.1c-1.4,1.2-1.4,2-0.2,2.9
			c1,0.8,1.2,1.9,1.7,2.8c0.6,1,2.8,1.5,1.3,3.1c-1,1.1-4.8,0-5.6-1.6C72.2,235.6,71.3,234.1,69.6,232.8z M71.1,222.3
			c-1.9,0.1-1.5,1.5-1.4,2.5c0.2,1.1-1,3,1.1,3.3c1.7,0.2,2.2-1.3,2.2-2.7C73,223.9,72.6,222.7,71.1,222.3z"/>
		<path d="M192.8,223.6c-5.7,0-11.3,0-17,0c-1.8,0-3.2,0-3-2.4c0.1-1.6,0.2-1.9,2.4-2.2c9.3-1.5,18.7,0,28-0.8
			c2.8-0.3,5.1,1.8,8.1,0.9c1.5-0.5-0.2,2.5,1.2,3.7c0.5,0.4-1.1,0.8-1.8,0.8C204.8,223.6,198.8,223.6,192.8,223.6z"/>
		<path d="M48.9,219.4c1.5-0.1,3.1,0.3,3.3,1.7c0.9,5.3,4.6,9.6,5.3,15c0.1,1,1.3,2.3-0.4,2.8c-1.4,0.5-3.3,0.3-3.7-1.4
			c-0.9-3.9-3.9-2-6-2.4c-2.1-0.4-2.7,1-3.1,2.7c-0.5,2-2.1,1.2-3.3,1.2c-1.4,0-1.3-1-0.9-1.9c2.2-5.4,3.8-10.9,6.3-16.2
			C47,219.5,47.8,219.4,48.9,219.4z M46.8,230.8c-0.1,1.6,1.1,1.3,2.1,1.3c1.4,0.1,2.5-0.3,2.1-2.1c-0.3-1.5-0.7-3.9-2.1-3.7
			C47,226.6,47.4,229.2,46.8,230.8z"/>
		<path d="M128.9,233.5c1.2,4.9,0.6,5.4-4.3,5.8c-5.9,0.4-9.4-4.4-10.1-8.2c-0.9-5.4,1.7-9.7,6.5-11.8c2.4-1,4.4-1.5,6.9-0.1
			c2.1,1.1,1.6,2.6,1.3,4c-0.4,2-1.8,0.3-2.7,0.3c-2.5,0.1-5.4-0.8-6.9,2.2c-1.4,2.7-0.7,6.4,1.6,8.2
			C123.9,236,126.5,235.3,128.9,233.5z"/>
		<path d="M153.3,229.3c0-0.6,0-1.1,0-1.7c0-8.6,0-8.6,8.6-8.2c0.8,0,1.9-0.3,2.2,1c0.3,1.2-0.4,1.7-1.5,2.2c-1.1,0.5-2,0.8-3.2,0.8
			c-1.2-0.1-2,0.3-1.9,1.7c0.1,1.3,0.9,1.7,2.1,1.7c1,0,2,0.1,3,0.1c1.5,0,1.5,1,1.5,2.1c0.1,1.2-0.6,1.6-1.7,1.5
			c-0.1,0-0.2,0-0.3,0c-1.5,0.5-4.2-1.4-4.5,1.8c-0.3,3.5,2.4,2.8,4.4,2.7c2.4-0.1,2.2,1.3,2,2.8c-0.1,0.8-0.6,1.2-1.3,1.2
			c-0.3,0-0.7,0-1,0C153.3,239.4,153.3,239.4,153.3,229.3z"/>
		<path d="M192.3,238.6c-5.7,0-11.3,0-17,0c-1.7,0-2.5-0.4-2.4-2.3c0-1.7,0.8-2.1,2.3-2.1c11.4,0,22.9,0,34.3,0
			c1.7,0,2.5,0.4,2.5,2.3c0,2-1.2,2.1-2.6,2.1C203.6,238.5,197.9,238.6,192.3,238.6z"/>
		<path d="M87.8,231.1c0-1.8,0.1-3.6,0-5.4c-0.1-1.6,0.4-4-2.9-2.8c-0.6,0.2-1.7-0.8-1.7-2c0-1,0.7-1.3,1.6-1.3c3.3,0,6.6,0,9.8,0
			c1.2,0,1.6,0.6,1.5,1.7c-0.1,1-0.1,2.3-1.5,2.2c-2.8-0.2-2.7,1.5-2.6,3.5c0.1,3.4,0,6.8,0.1,10.2c0,1.6-0.6,2.2-2.2,2.1
			c-1.6,0-2.2-0.7-2.1-2.2C87.9,234.9,87.8,233,87.8,231.1C87.8,231.1,87.8,231.1,87.8,231.1z"/>
		<path d="M136.7,229.2c0-2.1-0.1-4.3,0-6.4c0.1-1.5-0.7-3.5,2.2-3.4c2.7,0.1,2,1.9,2,3.3c0.1,3,0.2,6.1,0,9.1
			c-0.1,2.4,0.4,3.6,3.1,3.3c1.3-0.2,3-0.6,3,1.9c0,2.4-1.6,2-3,2.1c-7.4,0.2-7.4,0.2-7.4-7.1C136.7,231,136.7,230.1,136.7,229.2z"
			/>
		<path d="M107,229.4c0,2.5-0.1,5,0,7.4c0.1,1.5-0.4,2.3-2.1,2.3c-1.6,0-2.3-0.5-2.2-2.1c0.1-5.2,0.1-10.4,0-15.5
			c0-1.7,0.7-2.1,2.2-2.1c1.7,0,2.1,0.8,2,2.3C107,224.2,107,226.8,107,229.4z"/>
		<path d="M115.1,203.8c-0.3,1.2-0.5,2.3-1.7,2.5c-0.9,0.2-2.1,0.6-2.7-0.6c-1.1-2.5-2.6-1.4-3.6-0.2c-1.5,1.6-2.7,1.2-4.1,0
			c-1.3-1.1-0.7-2,0.2-3.1c1.3-1.6,2.4-1.7,3.9-0.2c1.2,1.3,2.4,1.1,3.5-0.2c0.9-1.1,2-1,3.1-0.6C114.7,201.8,114.7,203,115.1,203.8
			z"/>
		<path d="M83,206.5c-0.8,0-1.7-0.6-1.8-2.4c0-1.9,1.9-2.6,2.8-2.7c1.2-0.1,2.5,1.1,2.5,2.9C86.5,206.1,85.3,206.5,83,206.5z"/>
		<path d="M41.5,206.5c-1.7,0-2.8-1.3-2.9-2.6c-0.2-1.3,1.2-2.6,2.5-2.5c1.3,0.1,2.7,1,2.7,2.8C43.8,205.6,43,206.5,41.5,206.5z"/>
		<path d="M122,204c-0.5,1.4-0.9,2.6-2.7,2.5c-1.8-0.1-2.1-1.2-2-2.5c0.1-1.4,0.6-2.8,2.3-2.7C121.3,201.3,121.6,202.7,122,204z"/>
		<path d="M136.5,203.8c-0.2,1.4-0.6,2.6-2.4,2.7c-2,0.1-2.3-1.4-2.3-2.7c0.1-1.3,0.8-2.6,2.5-2.6
			C136.1,201.2,136.2,202.6,136.5,203.8z"/>
		<path d="M141,206.5c-1.8,0.1-2.5-1.1-2.5-2.5c0-1.4,0.6-2.8,2.3-2.7c1.7,0.1,2.2,1.4,2.2,2.8C143.1,205.4,142.8,206.7,141,206.5z"
			/>
		<path d="M91,206.5c-1.5-0.1-2.8-1.5-2.6-2.4c0.2-1,0.9-3.1,2.6-2.7c1.2,0.3,2.6,1.2,2.5,3C93.3,205.9,92.5,206.6,91,206.5z"/>
		<path d="M198.1,206.5c-1.8,0.2-2.1-1.1-2-2.4c0-1.6,0.7-2.9,2.6-2.8c1.8,0.1,2.1,1.7,2.1,2.9C200.8,205.6,199.7,206.5,198.1,206.5
			z"/>
		<path d="M210.2,204.5c0.2-1.7,0.6-3.4,2.4-3.1c1.1,0.2,2.7,1.2,2.3,2.7c-0.4,1.3-1.3,2.6-3.1,2.4
			C210.4,206.3,209.6,205.8,210.2,204.5z"/>
		<path d="M205,206.5c-1.3,0-2.1-0.8-2.1-2.2c0-1.7,1.2-2.7,2.7-2.8c1.3-0.1,1.9,1.2,1.9,2.4C207.5,205.1,207.1,206.5,205,206.5z"/>
		<path d="M50.7,203.9c-0.5,1.3-0.7,2.7-2.5,2.6c-1.6-0.1-2.7-1.5-2.6-2.5c0.1-0.9,0.7-2.9,2.4-2.7
			C49.3,201.5,50.3,202.4,50.7,203.9z"/>
		<path d="M172.3,204.2c-0.8,0.9-1.3,2.5-2.9,2.5c-1.4,0-2.7-0.8-2.4-2.5c0.2-1.6,1.6-2.5,2.9-2.5
			C170.4,201.6,172.3,202.3,172.3,204.2z"/>
		<path d="M69.5,201.2c2.1,0,2.5,1.4,2.5,2.6c0,1.3-0.3,2.8-2.2,2.7c-1.5-0.1-2.2-1.2-2.2-2.5C67.5,202.4,68.3,201.4,69.5,201.2z"/>
		<path d="M157.7,203.9c-0.3,1.8-0.9,2.8-2.7,2.6c-1.8-0.2-1.8-1.4-1.8-2.6c0.1-1.1,0.5-2.6,1.7-2.4
			C156.2,201.7,157.8,202.3,157.7,203.9z"/>
		<path d="M126.3,206.7c-0.9-1.1-2.5-1.7-2-2.9c0.4-1,1-2.8,2.6-2.5c1.1,0.2,2.7,1,2.5,2.6C129.1,205.5,127.3,205.6,126.3,206.7z"/>
		<path d="M75.6,206.5c-0.6,0-1.1-1.3-1.1-2.5c-0.1-1.9,1.8-2.3,2.9-2.5c1.1-0.2,1.7,1.3,1.6,2.5C78.9,205.4,78.4,206.6,75.6,206.5z
			"/>
		<path d="M192.9,203.6c-0.3,1.4-0.4,2.8-2,2.8c-1.5,0.1-2.5-1.4-2.4-2.3c0.1-1,0.8-2.7,2.3-2.8
			C192.3,201.1,192.4,202.7,192.9,203.6z"/>
		<path d="M179.2,203.9c-0.6,1.3-1.3,2.5-2.8,2.5c-1.7,0-1.8-1.6-1.8-2.7c0.1-1,0.3-2.5,1.8-2.3
			C177.8,201.5,178.8,202.5,179.2,203.9z"/>
		<path d="M101,203.9c-0.5,1.3-1.4,2.3-2.8,2.5c-1.3,0.2-2-0.6-2.2-2c-0.2-1.8,1-2.9,2.4-3C99.7,201.3,100.2,202.9,101,203.9z"/>
		<path d="M186,204c-0.2,1.3-0.3,2.7-1.9,2.3c-1.2-0.3-2.6-1-2.4-2.7c0.1-1.2,0.6-2.6,2.2-2.4C185.5,201.5,185.8,202.8,186,204z"/>
		<path d="M148.1,201.3c1.3,0.4,1.8,1.3,1.9,2.5c0,1.2,0.1,2.6-1.7,2.7c-1.6,0.1-1.8-1.1-1.8-2.2
			C146.3,202.9,146.8,201.8,148.1,201.3z"/>
		<path d="M64.3,203.9c-0.3,1.2-0.5,2.6-1.8,2.5c-1.3-0.1-2.5-0.9-2.5-2.6c0-1.5,1.3-2.3,2.3-2.4C63.9,201.2,64,202.8,64.3,203.9z"
			/>
		<path d="M57.4,203.7c-0.2,1.2-0.5,2.7-2,2.6c-1.2-0.1-2.3-1-2.3-2.5c0-1.5,1.3-2.3,2.3-2.4C56.9,201.2,57.1,202.7,57.4,203.7z"/>
		<path d="M162.8,202.3c-0.2-0.3-0.4-0.9-0.6-0.9c-0.7-0.1-0.7,0.6-0.8,1.1c-1.4,0-1.5,0.9-1.2,2c1.1,2.5,2,2.7,3.9,0.7
			C164.4,203.9,164.9,202.6,162.8,202.3z"/>
	</g>
</g>
</svg>
