<?xml version="1.0" encoding="utf-8"?>
<!-- Generator: Adobe Illustrator 24.0.1, SVG Export Plug-In . SVG Version: 6.00 Build 0)  -->
<svg version="1.1" id="Layer_1" xmlns="http://www.w3.org/2000/svg" xmlns:xlink="http://www.w3.org/1999/xlink" x="0px" y="0px"
	 viewBox="0 0 843.6 582.8" style="enable-background:new 0 0 843.6 582.8;" xml:space="preserve">
<style type="text/css">
	.st0{fill:#FFFFFF;}
</style>
<g id="ZqbjLi.tif">
	<g>
		<path d="M48.9,347.8c-15.9-6.3-31.7-12.7-47.8-19.1c5.3-15.3,10.5-30.3,15.8-45.2c0.4-1.2,2.4-2.4,3.8-2.6
			c10.7-1.2,21.4-2.1,32.1-3.3c1.5-0.2,3.6-1.6,4.2-2.9c1.1-2.5-0.3-4.2-3-5.2c-12.1-4.6-24-9.5-36.1-14c-3.6-1.3-5.5-2.8-5.7-7.2
			c-0.7-18.6-1.9-37.4,3.9-55.3c2.3-7.2,7.5-13.6,12-19.8c4.1-5.6,8.9-10.8,13.9-15.7c1.9-1.9,5.1-3.2,7.8-3.5
			c16.4-2.2,32.9-4.1,49.3-6c1.5-0.2,3.3,0.3,4.7,0.9c4.4,1.8,8.8,3.8,13.2,5.9c2.9,1.4,4.6,1.2,6.1-2.2c2.7-6,5.9-11.9,9.3-17.6
			c1.1-1.8,3.5-3.7,5.5-4c15.3-2,30.6-3.5,45.9-5.3c6.7-0.8,13.5-1.5,20.2-2.8c6.4-1.2,11.7,1.5,17.1,4c9.3,4.2,9,4,15.6-3.4
			c6.4-7.1,13.5-13.7,20.5-20.4c1.3-1.3,3.5-2,5.3-2.3c15.2-2.1,30.5-4.1,45.8-5.9c2.7-0.3,5.6,0.4,8.2,1.1c3,0.8,5.8,2.2,9.1,3.6
			c2.6-5.1,4.9-10.3,7.8-15.1c1-1.7,3.2-3.4,5-3.7c26-4.8,52-9.4,78-13.9c2.3-0.4,4.9,0.4,7.2,1.3c12.4,4.9,24.8,9.9,37.5,15.1
			c5.3-9.9,11.4-19,15.1-28.9c3.7-10,10.5-11.8,19.6-12.7c19.1-1.8,38.1-4.7,57.2-6.7c4.3-0.4,8.8,1.1,14,1.9
			c-0.3-11,8.4-13.1,17.9-15.3c28.7-6.8,57.3-14.4,86-21.4c2.8-0.7,6.4-0.2,9.2,0.9c52.3,20.6,104.6,41.3,156.9,62
			c3.2,1.3,3.9,2.5,2.7,5.9c-4.3,12.1-8.3,24.4-12.3,36.6c-0.9,2.7-2.2,4.4-5.3,5c-6,1.2-11.8,3.2-17.8,4.4
			c-2.9,0.6-3.7,1.7-3.7,4.6c-0.2,27.1-0.6,54.3-1,81.4c-0.2,12-0.5,23.9-1,35.9c-0.1,1.2-1.6,3.1-2.9,3.4
			c-7.6,2.2-15.3,4.1-24.3,6.5c11.8,4.6,22.2,8.8,32.7,12.7c3.4,1.3,5.2,3.2,6.6,6.6c7.4,18.2,10,37.1,8.8,56.5
			c-0.2,2.7-1.9,5.4-3.5,7.8c-1.5,2.2-3.4,4.2-5.6,5.6c-6,3.8-5.6,8.5-3.2,14.3c2.3,5.6,3.6,11.7,5.8,17.4c0.7,1.8,2.6,3.8,4.4,4.5
			c8.5,3.2,17.1,6,26.3,9.2c-6.1,10.4-11.9,20.3-17.7,30.2c-0.1,0.1-0.2,0.3-0.3,0.4c-3.1,4.8-5.3,11.3-9.7,13.8
			c-4.3,2.5-11,1.3-16.6,1.4c-9.6,0-19.3,1.5-28.3-4.8c-0.4,1.8-0.8,2.7-0.9,3.6c-0.7,9.5-0.7,9.5-10,11.8c-9.9,2.5-19.9,5-29.8,7.4
			c-1.7,0.4-3.9,0.3-5.5-0.4c-9.2-3.7-18.3-7.6-27.7-11.6c-2.7,6.9-5.5,13.4-7.7,20.1c-1.3,4.1-3.9,5.3-7.8,6
			c-18.8,3.4-37.6,7.2-56.5,10.5c-3.1,0.5-6.6,0-9.6-1.1c-6.2-2.3-12.1-5.3-18.6-8.2c-2.3,6.4-4.3,12.8-6.8,19
			c-0.6,1.5-2.7,3.2-4.4,3.5c-18.8,3.8-37.5,7.4-56.4,10.8c-2.8,0.5-6.1,0.1-8.7-0.9c-19.3-7.8-38.6-15.9-57.9-23.9
			c-1.8-0.7-3.6-1.4-6.6-2.6c0,16.5,0,32.3,0,48c-14.1,3.7-27.3,7.2-40.5,10.5c-1.4,0.4-3.2-0.3-4.7-0.9
			c-12.3-4.9-24.5-10-36.7-14.9c-1.2-0.5-2.4-0.8-4.7-1.6c0,8.8-0.1,16.8,0.1,24.9c0.1,3-0.7,4.3-3.9,5c-12.1,2.8-24,6-36.1,8.9
			c-1.4,0.3-3.2,0.1-4.5-0.5c-6.9-3.2-13.7-6.5-21-10c-4.6,7.7-9.2,15.2-13.4,22.8c-1.8,3.2-3.7,3.6-7.2,3.1
			c-8.7-1.2-17.5-2.3-26.2-2.3c-7.7,0-14.2-2.9-21-5.5c-3.1-1.2-6.1-2.4-9.8-3.9c0,6.7,0.2,12.8-0.1,18.9c-0.1,1.4-1.6,3.7-2.9,4
			c-12.1,3.3-24.3,6.3-36.5,9.2c-1.8,0.4-4,0.3-5.7-0.4c-52.9-20.9-105.8-41.8-158.6-62.9c-1.3-0.5-2.7-2.9-2.7-4.3
			c0.3-34.3,0.7-68.6,1.2-102.9c0.2-11.7,0.4-11.5-10.8-15.8C-1.9,391.4-2.8,394.7,5,381c5.8-10.2,12-20.3,17.7-30.6
			c1.7-3,3.3-3.6,6.7-3c6.3,1,12.8,1.1,19.3,1.6C48.8,348.6,48.9,348.2,48.9,347.8z M27.5,513.8c10-2.6,19.9-5.5,29.8-7.6
			c3.9-0.8,4.6-2.5,4.6-6c0.1-18.8,0.4-37.6,0.8-56.4c0-1.4,1.1-3.8,2.1-4.1c9-2.6,18.1-4.7,27.3-7.1c0,19.3,0,38,0,57.1
			c11,1,21.8,2.1,32.5,3c1.1,0.1,2.7-0.6,3.2-1.4c6.4-10.6,12.6-21.3,19.1-32.6c-7.1-0.6-13.4-1.2-19.1-1.7c0-41.7,0-82.9,0-124.3
			c-0.7,0.1-1.8,0.1-2.9,0.4c-8.9,2.3-17.8,4.9-26.8,6.9c-4,0.9-4.7,2.7-4.8,6.4c-0.1,17.8-0.5,35.6-0.9,53.4c0,1.6-0.9,4.2-1.8,4.4
			c-9.1,2.5-18.3,4.7-27.3,6.9c0-18,0-35.4,0-53.8c-10.4-0.9-21.1-1.7-31.7-2.8c-2.7-0.3-4.1,0.6-5.4,3c-5,9-10.4,17.8-15.5,26.7
			c-0.7,1.2-1.1,2.6-1.8,4.2c6.7,0.6,12.7,1.1,18.6,1.6C27.5,431.3,27.5,472.3,27.5,513.8z M605.9,310.1c0.5-0.3,0.9-0.6,1.4-0.8
			c1.1,1.6,2.7,3,3.3,4.7c4.5,13.5,8.6,27.1,13.2,40.5c0.5,1.4,2.9,3.1,4.4,3.2c6,0.4,12-0.3,18,0.3c6.6,0.6,10.6-1.3,13.6-7.5
			c4.6-9.3,10.1-18,15.8-27.9c-6.8,0-12.5-0.2-18.3,0.1c-3,0.1-4.3-0.9-5.2-3.8c-3.4-11.4-7.1-22.7-10.9-33.9
			c-0.8-2.3-2.3-4.2-3.6-6.6c4.7-4.5,9.8-9,14.6-13.8c1.2-1.2,2.5-2.9,2.6-4.5c1.1-17.9-1.1-35.4-7.8-52.2c-1.2-3.1-2.8-3.3-5.7-2.8
			c-24.1,4.3-48.2,8.4-72.3,12.6c-1.5,0.3-3.4,1.1-4,2.3c-5.6,11-11,22.1-17,34.2c8.3-1.3,15.6-2.4,22.5-3.4c0,42.3,0,84,0,125.9
			c10.5-2.7,21.4-5.2,32.2-8.3c1.3-0.4,2.7-3.1,2.8-4.7c0.3-10,0.3-20,0.3-29.9C605.9,325.7,605.9,317.9,605.9,310.1z M344.1,119.7
			c0,42.3,0,83.8,0,125.7c10.3-2.6,20.4-5.2,30.5-7.5c3.3-0.8,4.5-2.1,4.4-5.7c0-16,0.2-32,0.5-48c0-1.7,0.2-3.4,0.3-5.2
			c0.5-0.2,1.1-0.4,1.6-0.6c0.9,1.4,2,2.8,2.5,4.4c4.2,12.9,8.6,25.7,12.4,38.7c1.3,4.4,3.2,5.8,7.5,5.4c3.8-0.4,7.7-0.6,11.5,0
			c9.9,1.6,16-2,20.1-11.2c3.7-8.2,8.9-15.7,13.7-24.1c-6.9,0-12.8-0.1-18.8,0c-2.5,0-3.8-0.6-4.6-3.3c-3.4-11.4-7.1-22.7-10.9-33.9
			c-0.8-2.4-2.4-4.5-3.6-6.7c0.3,0.6,0.6,1.2,0.9,1.8c4.4-5.2,8.8-10.4,13.1-15.7c1.3-1.6,2.7-3.5,2.9-5.4c2-18.3-1.7-35.9-8.4-52.8
			c-0.3-0.8-2.6-1.5-3.8-1.3c-20.7,3.4-41.4,7-62.1,10.4c-14.6,2.4-14.6,2.2-21,15.4c-3.6,7.5-7.2,15-11.2,23.3
			C329.7,122,336.8,120.8,344.1,119.7z M539.1,352.4c-18.1,3.3-35.4,6.4-52.3,9.5c0-9.6,0.1-18.6-0.1-27.5c-0.1-3.2,1-4.2,4.1-4.8
			c9.2-2,18.3-4.4,27.4-6.9c1.7-0.5,4.2-2.3,4.3-3.6c0.4-9,0.2-17.9,0.2-27.3c-11.9,3-23.6,5.8-35.5,8.8c0-8.8,0-17.2,0-26
			c11.1-1.3,22-2.5,32.8-4c2.1-0.3,5-1.2,5.8-2.7c6.2-11.2,12-22.7,18.4-35c-5.1,0.6-9.4,1-13.6,1.5c-17.6,2-35.2,4-52.8,6.1
			c-3.7,0.4-6.4,2.2-8.2,5.9c-4.8,9.8-10.1,19.4-15,29.2c-1.3,2.7-2.3,5.9-2.3,8.9c-0.4,19.6-0.5,39.3-0.7,58.9
			c-0.1,8.3,0.2,16.7-0.4,25c-0.7,9-2.2,17.9,5.4,25c1.2,1.1,2.3,2.5,3,3.9c1.7,3.6,4.5,3.9,7.9,3.2c17.7-3.4,35.3-6.6,53-10.1
			c1.9-0.4,4.5-2,5.2-3.6C530.3,375.9,534.4,364.6,539.1,352.4z M558,41.6c-2.2,0-3.6-0.1-4.9,0c-20.9,2.6-41.7,5.3-62.6,7.7
			c-3.1,0.4-4.7,1.4-6,4c-5.8,11.2-11.7,22.3-17.5,33.5c-0.7,1.4-1.1,3.1-1.2,4.7c-0.5,33-0.8,66-1.2,98.9c0,1.6,0.2,3.4,1.1,4.6
			c2.8,4.1,5.7,8.2,8.9,12c0.9,1,3,1.9,4.3,1.6c14.8-2.5,29.6-5.5,44.4-7.9c14.9-2.4,15-2.2,20.3-16c3.1-7.9,6.1-15.8,9.4-24.3
			c-18.1,3.3-35.4,6.5-52.8,9.6c0-10.4,0-20.5,0-31c11-2.8,21.8-5.6,32.6-8.5c1.3-0.4,3.3-1.8,3.3-2.7c0.3-9.1,0.1-18.1,0.1-27.7
			c-11.6,2.9-23.2,5.7-35,8.6c0-9.1,0-17.5,0-25.9c12-1.4,23.7-2.8,35.3-4.3c1-0.1,2.3-0.8,2.7-1.6C545.5,65.6,551.5,54,558,41.6z
			 M153.1,171c9.6-1.1,18.9-1.9,28.2-3.3c4.3-0.7,9.2,0.2,11.9-5.6c4.6-10.1,10.2-19.7,15.3-29.6c0.4-0.8,0.4-1.7,0.6-2.9
			c-1.9,0-3.4-0.2-4.9,0c-19.1,2.3-38.1,4.7-57.2,6.9c-5.9,0.7-10.2,2.2-12.8,8.5c-3.9,9.4-9.4,18.2-14,27.4
			c-1.3,2.6-2.5,5.6-2.6,8.4c-0.5,29.1-0.4,58.2-1.3,87.3c-0.3,9.7,1.7,17.5,8.1,24.9c3.1,3.6,5.6,4.5,9.9,3.6
			c17.3-3.4,34.7-6.4,52.1-9.9c2-0.4,4.3-2.4,5.1-4.3c3.2-7.2,5.9-14.7,8.8-22.1c1.4-3.7,2.7-7.5,4.2-11.7
			c-17.9,3.3-35.1,6.4-52.8,9.7c0-9,0.2-17.6-0.1-26.2c-0.1-4,1.6-5.4,5.3-6.3c9.2-2.1,18.3-4.5,27.4-7c1.2-0.3,3.2-1.5,3.2-2.3
			c0.2-9.2,0.1-18.4,0.1-28.1c-11.6,2.9-23,5.7-34.7,8.6C153.1,187.8,153.1,179.6,153.1,171z M9.5,324.4c1.2,0.1,1.7,0.3,2.2,0.2
			c13.8-1.6,27.6-4,41.4-4.7c11.7-0.6,20.6-4.7,26.2-15.2c0.1-0.1,0.2-0.2,0.3-0.4C85,295.9,91.8,288.3,94,278
			c3.8-17.6,3.6-35.2,0.2-53.3c-8.6-2-17.4-4.3-26.2-6.1c-16.8-3.4-17-3.5-16.1-18.7c0-0.2,0-0.3,0-0.5c0.1-2.8,0.9-4.6,4.3-4.8
			c5.4-0.3,10.8-1.4,16.3-1.7c12.9-0.8,13-0.6,17.9-12.4c3.5-8.4,6.9-16.9,10.5-25.8c-16.3,2-31.9,4.3-47.5,5.5
			c-5.4,0.4-7.9,3.4-11,6.5c-1.9,1.9-3.7,3.8-5.2,6c-5.3,8.1-12,15.8-15.2,24.7c-5.8,16.4-3,33.8-3.3,51c15.1,4.2,29.9,8.2,45,12.3
			c0,7.6,0,15,0,22.5c-12.4,1.1-24.1,2.1-35.7,3.4c-2.2,0.3-5.6,1.6-6.2,3.3C17.3,301.2,13.5,312.6,9.5,324.4z M312.2,101.6
			c-1.8,0-2.6-0.1-3.4,0c-10.7,1.3-21.4,2.4-32,4c-7.9,1.1-16.2,1-22,8.3c-4.2,5.3-9.9,9.6-13.7,15.1c-6.5,9.7-14.1,19.4-17.5,30.3
			c-3.8,11.9-4.1,25.1-4.6,37.8c-0.4,10.5,0.6,21.2,1.9,31.8c1.7,13.7,5.4,26.8,11.3,39.4c18.1-2.2,36-4.6,53.9-6.5
			c6.1-0.7,10.3-2.4,11.8-9.1c1.1-4.8,3.5-9.2,5.3-13.8c2.1-5.3,4.1-10.5,6.4-16.5c-16.8,2.4-32.4,4.7-48.2,6.9
			c-6.6-19.7-9.3-39.8-8.1-60.3c0.4-7,2.3-14,3.9-20.9c0.7-3.2,2.5-5.4,6.4-5.7c7.8-0.6,15.5-1.6,23.2-2.7c3.2-0.5,8.1-0.8,9.1-2.9
			C301.7,125.6,306.6,113.9,312.2,101.6z M331.6,281.4c-2.3,0.2-3.2,0.2-4.2,0.5c-8.6,2.2-17.2,4.4-25.9,6.6
			c-21.9,5.6-43.8,11.1-65.7,16.7c-1.2,0.3-3,1.2-3.3,2.2c-3.8,10.9-7.5,21.8-11.6,34.1c12.9-3.3,24.6-6.3,36.2-9.3
			c0,41.3,0,82.3,0,123.6c10.4-2.7,20.4-5.4,30.5-7.7c3.4-0.8,4.2-2.3,4.2-5.4c0-19.2,0.1-38.3,0.1-57.5c0-20.6,0-41.2,0-61.8
			c5.7-1.4,10.1-2.6,14.5-3.6c13-2.8,13-2.8,17.3-15.1c0.2-0.5,0.3-1,0.4-1.4C326.5,296.3,328.9,289.3,331.6,281.4z M564,66.3
			c12.9-3.2,24.6-6.1,36.1-8.9c0,41.5,0,82.2,0,123.3c9.7-2.5,19.4-5.3,29.2-7.3c4.3-0.9,5.6-2.6,5.6-6.9
			c0.2-37.8,0.7-75.5,0.8-113.3c0-4,1.5-5.6,4.9-6.3c6.1-1.4,12.2-2.8,18.3-4.2c2.7-0.6,4.3-2,5.2-5.1c2-7.2,4.7-14.1,7.1-21.2
			c1.1-3.1,2-6.3,3.3-10.4c-5.3,1.4-9.5,2.4-13.6,3.5c-27,6.8-54.1,13.5-81.1,20.4c-1.7,0.4-3.9,1.7-4.4,3.1
			C571.6,43.6,568.1,54.2,564,66.3z M391.5,385.9c0-38.7,0-76.9,0-114.6c-11.1,0-22-0.2-32.9,0.2c-1.5,0-3.4,2.4-4.4,4.1
			c-4.7,8-9.2,16.1-13.8,24.2c-1,1.8-2,3.6-3.6,6.4c7.5,0,13.7,0,19.8,0c0,17.1,0.1,33.6,0,50.1c-0.1,11-0.4,21.9-0.9,32.9
			c-0.6,12.1-1.1,24,9.2,33c0.1,0.1,0.2,0.3,0.3,0.4c2,0.8,4.1,2.5,5.9,2.2c17.7-3.1,35.4-6.5,53-9.9c1.1-0.2,2.6-1.5,3-2.6
			c4.1-11.3,7.9-22.7,12.1-35C422.7,380.2,407.1,383.1,391.5,385.9z M170.8,352.9c0,41.7,0,83,0,124.5c10.4-2.6,20.7-5,30.8-7.9
			c1.4-0.4,3-2.9,3.1-4.5c0.6-11.6,1-23.2,1.1-34.9c0.4-35.4,0.7-70.9,1-106.3c0-2.1,0-4.2,0-6.3c-11,0-21.2,0-31.3,0
			c-1.7,0-3.4-0.4-5,0.1c-1.7,0.5-3.8,1.5-4.6,2.9c-4.6,7.4-9,15.1-13.4,22.7c-1.7,2.9-3.3,6-5.3,9.6
			C155.9,352.9,163.5,352.9,170.8,352.9z"/>
		<path class="st0" d="M27.5,513.8c0-41.5,0-82.5,0-123.8c-5.9-0.5-11.9-1-18.6-1.6c0.7-1.6,1.1-3,1.8-4.2
			c5.2-8.9,10.5-17.7,15.5-26.7c1.3-2.4,2.7-3.3,5.4-3c10.6,1,21.3,1.9,31.7,2.8c0,18.4,0,35.8,0,53.8c9-2.2,18.2-4.4,27.3-6.9
			c1-0.3,1.8-2.9,1.8-4.4c0.4-17.8,0.8-35.6,0.9-53.4c0-3.7,0.7-5.6,4.8-6.4c9-2,17.9-4.6,26.8-6.9c1.1-0.3,2.2-0.3,2.9-0.4
			c0,41.4,0,82.6,0,124.3c5.7,0.5,12,1.1,19.1,1.7c-6.6,11.2-12.8,21.9-19.1,32.6c-0.5,0.8-2.2,1.5-3.2,1.4
			c-10.7-0.9-21.5-1.9-32.5-3c0-19.1,0-37.8,0-57.1c-9.2,2.3-18.3,4.5-27.3,7.1c-1,0.3-2.1,2.7-2.1,4.1c-0.4,18.8-0.7,37.6-0.8,56.4
			c0,3.5-0.8,5.2-4.6,6C47.4,508.3,37.6,511.1,27.5,513.8z"/>
		<path class="st0" d="M605.9,310.1c0,7.8,0,15.6,0,23.4c0,10,0,20-0.3,29.9c-0.1,1.7-1.5,4.3-2.8,4.7c-10.8,3-21.7,5.6-32.2,8.3
			c0-41.9,0-83.6,0-125.9c-6.9,1-14.2,2.1-22.5,3.4c6-12.1,11.4-23.2,17-34.2c0.6-1.2,2.6-2,4-2.3c24.1-4.3,48.2-8.4,72.3-12.6
			c2.9-0.5,4.4-0.3,5.7,2.8c6.6,16.8,8.9,34.3,7.8,52.2c-0.1,1.6-1.4,3.3-2.6,4.5c-4.8,4.8-9.9,9.4-14.6,13.8
			c1.3,2.4,2.9,4.4,3.6,6.6c3.8,11.3,7.5,22.6,10.9,33.9c0.9,2.9,2.2,3.9,5.2,3.8c5.7-0.2,11.5-0.1,18.3-0.1
			c-5.7,9.9-11.3,18.7-15.8,27.9c-3,6.2-7.1,8.1-13.6,7.5c-5.9-0.6-12,0.1-18-0.3c-1.6-0.1-3.9-1.7-4.4-3.2
			c-4.6-13.5-8.7-27-13.2-40.5c-0.6-1.7-2.1-3.1-3.3-4.7C606.8,309.6,606.4,309.8,605.9,310.1z M606.7,275.1
			c0.4,0.4,0.7,0.9,1.1,1.3c1.7-2.2,3.2-4.7,5.2-6.6c5-4.6,8.6-8.9,6.8-16.9c-2.3-10.8-1.2-12.2-13.1-8.5
			C606.7,254.6,606.7,264.8,606.7,275.1z"/>
		<path class="st0" d="M344.1,119.7c-7.3,1.2-14.4,2.3-22.5,3.6c4-8.3,7.6-15.8,11.2-23.3c6.4-13.2,6.4-13.1,21-15.4
			c20.7-3.4,41.4-7,62.1-10.4c1.2-0.2,3.5,0.5,3.8,1.3c6.7,17,10.4,34.5,8.4,52.8c-0.2,1.9-1.6,3.9-2.9,5.4
			c-4.3,5.3-8.7,10.5-13.1,15.7c-0.3-0.6-0.6-1.2-0.9-1.8c1.2,2.2,2.8,4.3,3.6,6.7c3.8,11.3,7.5,22.5,10.9,33.9
			c0.8,2.7,2.1,3.3,4.6,3.3c6-0.1,12,0,18.8,0c-4.8,8.4-10.1,15.9-13.7,24.1c-4.1,9.2-10.2,12.8-20.1,11.2c-3.7-0.6-7.7-0.4-11.5,0
			c-4.4,0.4-6.3-1-7.5-5.4c-3.8-13-8.1-25.8-12.4-38.7c-0.5-1.6-1.7-2.9-2.5-4.4c-0.5,0.2-1.1,0.4-1.6,0.6c-0.1,1.7-0.3,3.4-0.3,5.2
			c-0.2,16-0.5,32-0.5,48c0,3.5-1.1,4.9-4.4,5.7c-10.1,2.3-20.2,5-30.5,7.5C344.1,203.5,344.1,162,344.1,119.7z M380.1,144.1
			c13.3-7.5,16.9-18.3,10.4-32.5c-3.2,0.5-6.7,1-10.4,1.5C380.1,123.9,380.1,134.1,380.1,144.1z"/>
		<path class="st0" d="M539.1,352.4c-4.7,12.2-8.9,23.4-13.5,34.6c-0.7,1.7-3.2,3.2-5.2,3.6c-17.6,3.5-35.3,6.7-53,10.1
			c-3.4,0.6-6.2,0.3-7.9-3.2c-0.7-1.5-1.8-2.8-3-3.9c-7.7-7.1-6.1-16-5.4-25c0.6-8.3,0.3-16.6,0.4-25c0.2-19.6,0.3-39.3,0.7-58.9
			c0.1-3,1-6.2,2.3-8.9c4.8-9.8,10.2-19.4,15-29.2c1.8-3.7,4.4-5.5,8.2-5.9c17.6-2.1,35.2-4.1,52.8-6.1c4.2-0.5,8.5-0.9,13.6-1.5
			c-6.4,12.2-12.2,23.7-18.4,35c-0.9,1.5-3.8,2.5-5.8,2.7c-10.8,1.5-21.7,2.7-32.8,4c0,8.8,0,17.2,0,26c11.9-3,23.5-5.8,35.5-8.8
			c0,9.3,0.2,18.3-0.2,27.3c-0.1,1.3-2.6,3.1-4.3,3.6c-9.1,2.5-18.2,4.9-27.4,6.9c-3.1,0.7-4.2,1.7-4.1,4.8
			c0.2,8.9,0.1,17.9,0.1,27.5C503.8,358.8,521,355.7,539.1,352.4z"/>
		<path class="st0" d="M558,41.6c-6.5,12.4-12.5,24-18.6,35.6c-0.4,0.8-1.7,1.5-2.7,1.6c-11.7,1.5-23.3,2.8-35.3,4.3
			c0,8.5,0,16.9,0,25.9c11.7-2.9,23.3-5.8,35-8.6c0,9.5,0.1,18.6-0.1,27.7c0,1-2,2.4-3.3,2.7c-10.8,2.9-21.7,5.7-32.6,8.5
			c0,10.4,0,20.6,0,31c17.4-3.2,34.7-6.3,52.8-9.6c-3.3,8.5-6.3,16.4-9.4,24.3c-5.4,13.8-5.4,13.6-20.3,16
			c-14.8,2.4-29.6,5.4-44.4,7.9c-1.3,0.2-3.4-0.6-4.3-1.6c-3.2-3.8-6.1-7.8-8.9-12c-0.8-1.2-1.1-3.1-1.1-4.6c0.3-33,0.7-66,1.2-98.9
			c0-1.6,0.4-3.3,1.2-4.7c5.8-11.2,11.7-22.3,17.5-33.5c1.3-2.6,2.9-3.7,6-4c20.9-2.4,41.7-5.1,62.6-7.7
			C554.4,41.4,555.7,41.6,558,41.6z"/>
		<path class="st0" d="M153.1,171c0,8.6,0,16.8,0,26c11.7-2.9,23.1-5.7,34.7-8.6c0,9.6,0.1,18.9-0.1,28.1c0,0.8-2,2-3.2,2.3
			c-9.1,2.4-18.2,4.9-27.4,7c-3.7,0.8-5.4,2.3-5.3,6.3c0.2,8.6,0.1,17.3,0.1,26.2c17.7-3.2,34.9-6.4,52.8-9.7
			c-1.5,4.2-2.8,7.9-4.2,11.7c-2.8,7.4-5.6,14.9-8.8,22.1c-0.8,1.9-3.2,3.9-5.1,4.3c-17.3,3.5-34.7,6.5-52.1,9.9
			c-4.4,0.9-6.8-0.1-9.9-3.6c-6.4-7.4-8.4-15.2-8.1-24.9c0.9-29.1,0.8-58.2,1.3-87.3c0-2.8,1.3-5.8,2.6-8.4c4.6-9.2,10-18,14-27.4
			c2.7-6.3,6.9-7.8,12.8-8.5c19.1-2.1,38.1-4.6,57.2-6.9c1.5-0.2,3,0,4.9,0c-0.2,1.1-0.2,2.1-0.6,2.9c-5.1,9.9-10.7,19.5-15.3,29.6
			c-2.7,5.8-7.6,5-11.9,5.6C172.1,169.1,162.7,169.9,153.1,171z"/>
		<path class="st0" d="M9.5,324.4c4.1-11.8,7.8-23.3,12.2-34.5c0.7-1.7,4-3.1,6.2-3.3c11.7-1.4,23.4-2.3,35.7-3.4
			c0-7.5,0-14.9,0-22.5c-15-4.1-29.8-8.2-45-12.3c0.3-17.2-2.5-34.7,3.3-51c3.1-8.9,9.9-16.6,15.2-24.7c1.4-2.2,3.3-4.2,5.2-6
			c3.1-3.1,5.7-6.1,11-6.5c15.6-1.2,31.2-3.5,47.5-5.5c-3.6,8.9-7,17.4-10.5,25.8c-4.9,11.7-5,11.6-17.9,12.4
			c-5.4,0.3-10.8,1.4-16.3,1.7c-3.4,0.2-4.2,2.1-4.3,4.8c0,0.2,0,0.3,0,0.5c-1,15.1-0.8,15.2,16.1,18.7c8.9,1.8,17.6,4.1,26.2,6.1
			c3.4,18.1,3.6,35.7-0.2,53.3c-2.2,10.3-9,17.9-14.4,26.4c-0.1,0.1-0.2,0.2-0.3,0.4c-5.6,10.5-14.4,14.5-26.2,15.2
			c-13.9,0.8-27.6,3.1-41.4,4.7C11.2,324.7,10.7,324.6,9.5,324.4z"/>
		<path class="st0" d="M312.2,101.6c-5.5,12.2-10.5,24-16.3,35.2c-1.1,2-5.9,2.4-9.1,2.9c-7.7,1.1-15.4,2.1-23.2,2.7
			c-4,0.3-5.7,2.6-6.4,5.7c-1.6,6.9-3.5,13.9-3.9,20.9c-1.2,20.5,1.5,40.6,8.1,60.3c15.8-2.3,31.4-4.5,48.2-6.9
			c-2.3,6-4.4,11.3-6.4,16.5c-1.8,4.6-4.3,9.1-5.3,13.8c-1.5,6.7-5.7,8.4-11.8,9.1c-17.9,1.9-35.8,4.3-53.9,6.5
			c-5.8-12.6-9.6-25.8-11.3-39.4c-1.3-10.5-2.3-21.2-1.9-31.8c0.5-12.7,0.9-25.9,4.6-37.8c3.5-10.9,11-20.6,17.5-30.3
			c3.8-5.6,9.5-9.8,13.7-15.1c5.8-7.3,14.1-7.2,22-8.3c10.7-1.5,21.4-2.7,32-4C309.5,101.5,310.3,101.6,312.2,101.6z"/>
		<path class="st0" d="M331.6,281.4c-2.7,7.9-5,14.9-7.4,21.8c-0.2,0.5-0.3,1-0.4,1.4c-4.3,12.2-4.3,12.2-17.3,15.1
			c-4.5,1-8.9,2.2-14.5,3.6c0,20.6,0,41.2,0,61.8c0,19.2-0.2,38.3-0.1,57.5c0,3.2-0.8,4.7-4.2,5.4c-10.1,2.3-20.1,5-30.5,7.7
			c0-41.3,0-82.3,0-123.6c-11.5,3-23.2,6-36.2,9.3c4.2-12.3,7.8-23.3,11.6-34.1c0.4-1,2.1-1.8,3.3-2.2c21.9-5.6,43.8-11.2,65.7-16.7
			c8.6-2.2,17.2-4.4,25.9-6.6C328.3,281.7,329.3,281.7,331.6,281.4z"/>
		<path class="st0" d="M564,66.3c4.1-12.1,7.6-22.8,11.5-33.3c0.5-1.4,2.8-2.7,4.4-3.1c27-6.9,54-13.6,81.1-20.4
			c4.1-1,8.3-2.1,13.6-3.5c-1.3,4-2.2,7.2-3.3,10.4c-2.4,7.1-5.1,14-7.1,21.2c-0.9,3.1-2.5,4.4-5.2,5.1c-6.1,1.4-12.2,2.8-18.3,4.2
			c-3.4,0.8-4.9,2.3-4.9,6.3c-0.1,37.8-0.6,75.5-0.8,113.3c0,4.3-1.3,6-5.6,6.9c-9.8,2.1-19.5,4.8-29.2,7.3c0-41.1,0-81.8,0-123.3
			C588.6,60.3,576.9,63.1,564,66.3z"/>
		<path class="st0" d="M391.5,385.9c15.5-2.8,31.2-5.7,47.5-8.7c-4.2,12.2-8.1,23.6-12.1,35c-0.4,1.1-1.8,2.4-3,2.6
			c-17.6,3.4-35.3,6.8-53,9.9c-1.8,0.3-3.9-1.4-5.9-2.2c-0.1-0.1-0.2-0.3-0.3-0.4c-10.2-9-9.7-20.9-9.2-33
			c0.5-10.9,0.8-21.9,0.9-32.9c0.1-16.5,0-32.9,0-50.1c-6.1,0-12.3,0-19.8,0c1.6-2.8,2.6-4.6,3.6-6.4c4.6-8.1,9.1-16.2,13.8-24.2
			c1-1.7,2.9-4,4.4-4.1c10.9-0.4,21.9-0.2,32.9-0.2C391.5,309.1,391.5,347.2,391.5,385.9z"/>
		<path class="st0" d="M170.8,352.9c-7.3,0-14.9,0-23.4,0c2-3.6,3.6-6.7,5.3-9.6c4.4-7.6,8.7-15.2,13.4-22.7
			c0.9-1.4,2.9-2.3,4.6-2.9c1.5-0.5,3.3-0.1,5-0.1c10.1,0,20.3,0,31.3,0c0,2.1,0,4.2,0,6.3c-0.3,35.4-0.6,70.9-1,106.3
			c-0.1,11.6-0.5,23.2-1.1,34.9c-0.1,1.6-1.7,4.1-3.1,4.5c-10.1,2.8-20.4,5.3-30.8,7.9C170.8,435.9,170.8,394.6,170.8,352.9z"/>
		<path d="M606.7,275.1c0-10.2,0-20.5,0-30.5c11.9-3.7,10.8-2.3,13.1,8.5c1.7,7.9-1.9,12.3-6.8,16.9c-2,1.9-3.5,4.4-5.2,6.6
			C607.4,276,607.1,275.5,606.7,275.1z"/>
		<path d="M380.1,144.1c0-10,0-20.3,0-30.9c3.7-0.5,7.2-1.1,10.4-1.5C397,125.9,393.4,136.7,380.1,144.1z"/>
	</g>
</g>
</svg>
